<?xml version="1.0" standalone="no"?>
<!DOCTYPE svg PUBLIC "-//W3C//DTD SVG 20010904//EN"
 "http://www.w3.org/TR/2001/REC-SVG-20010904/DTD/svg10.dtd">
<svg version="1.0" xmlns="http://www.w3.org/2000/svg"
 width="661.000000pt" height="661.000000pt" viewBox="0 0 661.000000 661.000000"
 preserveAspectRatio="xMidYMid meet">
<metadata>
Created by potrace 1.11, written by Peter Selinger 2001-2013
</metadata>
<g transform="translate(0.000000,661.000000) scale(0.100000,-0.100000)"
fill="#000000" stroke="none">
<path d="M740 4044 c0 -8 -4 -13 -9 -9 -5 3 -13 1 -16 -5 -4 -6 -16 -8 -27 -4
-14 4 -18 2 -14 -5 6 -10 -6 -15 -26 -12 -4 0 -4 -7 -1 -17 6 -15 5 -15 -10
-3 -16 12 -21 8 -18 -12 1 -4 -9 -2 -21 4 -22 12 -22 11 -8 -6 10 -13 11 -16
2 -11 -8 5 -19 1 -28 -10 -15 -18 -15 -18 -9 1 6 18 4 18 -15 -3 -12 -13 -33
-27 -47 -33 -14 -5 -21 -14 -17 -20 4 -8 0 -8 -15 0 -18 10 -20 9 -14 -6 3
-10 3 -15 -1 -11 -4 3 -16 -2 -27 -13 -11 -11 -25 -17 -31 -13 -7 4 -8 3 -4
-4 4 -7 -3 -14 -19 -18 -14 -3 -25 -10 -25 -16 0 -5 -9 -19 -21 -31 -19 -21
-20 -21 -14 -2 3 11 -1 7 -9 -10 -8 -16 -15 -27 -16 -23 0 4 -10 -3 -23 -15
-14 -14 -18 -25 -12 -29 6 -5 3 -8 -7 -8 -10 0 -22 -9 -28 -20 -6 -11 -15 -18
-20 -15 -6 3 -7 -1 -4 -9 4 -9 -1 -18 -10 -22 -9 -3 -16 -10 -16 -16 0 -5 6
-6 13 -2 6 3 -1 -5 -17 -18 -17 -14 -26 -30 -22 -36 4 -7 1 -12 -9 -12 -9 0
-13 -4 -10 -10 3 -5 1 -10 -4 -10 -6 0 -11 -5 -11 -11 0 -5 6 -7 13 -3 6 4 4
-2 -6 -13 -9 -11 -17 -30 -17 -42 0 -12 -4 -19 -10 -16 -9 6 -15 -22 -11 -54
2 -8 -2 -10 -11 -5 -9 5 -8 2 2 -11 12 -15 12 -17 1 -10 -11 6 -13 4 -8 -8 4
-11 1 -17 -7 -17 -15 0 -16 -16 -2 -39 6 -10 5 -12 -2 -7 -7 4 -12 2 -12 -3 0
-6 5 -11 11 -11 5 0 7 -5 4 -10 -4 -6 -11 -7 -17 -4 -6 4 -6 -2 1 -15 9 -16 9
-21 0 -21 -8 0 -8 -4 1 -15 7 -8 8 -15 3 -15 -5 0 -7 -21 -3 -50 4 -32 3 -50
-4 -50 -6 0 -5 -5 2 -12 7 -7 8 -17 2 -29 -7 -12 -6 -20 2 -25 6 -4 8 -3 4 4
-3 6 -3 13 2 16 4 2 8 -6 8 -19 0 -13 -3 -22 -7 -19 -4 2 -11 0 -14 -6 -4 -6
-1 -9 7 -8 7 2 12 -3 10 -11 -3 -12 -1 -12 14 0 16 13 16 12 5 -8 -7 -15 -8
-23 -1 -23 5 0 10 -12 10 -26 0 -17 4 -23 13 -18 7 5 6 0 -3 -11 -8 -10 -10
-16 -4 -12 7 4 18 -1 25 -10 10 -12 10 -14 2 -9 -7 4 -13 2 -13 -3 0 -6 5 -11
11 -11 5 0 7 -4 4 -10 -3 -5 0 -10 8 -10 17 0 30 -27 20 -43 -3 -7 -3 -9 2 -5
10 9 38 -19 30 -31 -3 -5 0 -13 6 -17 8 -4 9 -3 5 4 -13 21 4 13 32 -15 15
-15 20 -22 12 -17 -9 5 -7 1 3 -8 11 -10 23 -16 27 -13 5 3 22 -12 40 -32 19
-23 29 -30 25 -18 -5 14 -2 13 9 -5 10 -16 15 -19 16 -10 0 13 1 13 10 0 5 -8
10 -11 10 -6 0 6 7 1 16 -10 8 -10 12 -12 8 -4 -6 12 -4 12 12 -1 10 -9 25
-14 33 -11 8 3 11 0 7 -6 -4 -8 5 -10 30 -8 32 2 34 1 19 -10 -15 -11 8 -13
142 -13 89 1 167 5 174 10 12 7 11 9 -1 9 -11 0 -10 3 4 11 14 9 20 8 27 -2 6
-10 9 -11 9 -1 0 6 5 12 11 12 7 0 18 8 26 18 8 9 11 11 7 3 -4 -9 -2 -12 7
-9 8 3 13 10 12 16 -2 8 5 8 24 1 22 -8 24 -8 14 5 -8 10 -9 16 -1 21 5 3 10
0 11 -7 0 -7 4 -4 9 7 6 14 9 15 10 5 0 -8 8 -2 17 15 15 27 17 28 24 10 6
-16 8 -16 8 -3 1 18 71 106 71 89 0 -6 5 -11 11 -11 5 0 8 4 5 9 -3 5 1 14 8
21 8 6 18 25 21 42 4 17 10 26 14 20 3 -6 11 0 18 14 8 18 8 22 0 17 -8 -4 -8
-2 0 9 7 8 9 19 5 23 -4 5 0 6 9 3 13 -5 15 -1 11 19 -4 20 -2 24 9 18 11 -7
11 -5 -1 10 -14 17 -13 18 5 11 11 -4 16 -4 13 -1 -4 4 -3 17 2 30 5 13 5 26
-1 32 -12 12 0 45 13 37 5 -3 2 9 -8 27 -16 32 -16 33 0 20 15 -12 17 -12 14
0 -2 8 -7 17 -13 21 -6 5 -4 8 5 8 13 0 13 1 0 10 -9 6 -11 10 -3 10 7 0 10 7
7 15 -4 8 -11 12 -16 9 -6 -4 -5 3 1 15 8 14 8 21 1 21 -7 0 -7 7 1 21 8 15 8
19 0 15 -6 -4 -11 0 -11 8 0 9 -5 16 -11 16 -8 0 -7 6 2 17 10 11 10 14 2 9
-8 -4 -13 -1 -13 8 0 9 -4 16 -10 16 -5 0 -10 9 -10 21 0 13 -4 18 -12 13 -8
-5 -8 -2 1 10 8 9 10 16 5 15 -20 -3 -35 2 -29 10 3 5 1 12 -5 16 -6 4 -8 11
-5 16 3 5 -2 6 -11 2 -12 -4 -15 -3 -10 5 4 7 2 12 -4 12 -6 0 -8 5 -5 10 3 6
1 10 -5 10 -15 0 -40 25 -40 40 0 7 -7 9 -16 6 -8 -3 -12 -2 -9 4 3 6 0 10 -7
10 -9 0 -9 3 2 10 12 8 10 10 -8 10 -13 0 -20 4 -17 10 3 6 1 10 -5 10 -15 0
-41 26 -33 34 4 3 1 6 -6 6 -16 0 -42 26 -34 34 4 3 -1 6 -11 6 -9 0 -15 3
-12 8 2 4 -2 18 -11 32 -8 14 -12 17 -9 7 3 -11 2 -15 -4 -12 -6 3 -10 13 -10
21 0 8 -4 12 -10 9 -7 -4 -7 2 -1 19 8 20 6 27 -12 40 -20 14 -20 15 -2 10 16
-5 17 -4 5 5 -11 8 -18 6 -29 -7 -12 -16 -13 -15 -7 4 4 14 2 21 -7 21 -9 0
-12 -7 -9 -19 2 -10 -2 -26 -9 -35 -12 -15 -12 -16 5 -9 19 7 19 6 1 -14 -10
-11 -13 -20 -7 -20 7 0 12 -5 12 -11 0 -5 -6 -7 -12 -3 -9 5 -9 2 1 -9 7 -9
10 -17 6 -17 -4 0 -1 -8 6 -17 10 -11 10 -14 2 -9 -18 10 -16 -9 2 -24 8 -7
13 -16 10 -20 -3 -5 -1 -11 4 -14 5 -3 7 -15 4 -26 -3 -12 0 -20 8 -20 7 0 9
-3 6 -7 -4 -3 -2 -12 4 -20 6 -7 8 -13 3 -13 -5 0 -2 -5 6 -10 13 -9 13 -10 0
-10 -13 0 -13 -1 0 -10 9 -6 10 -10 3 -10 -7 0 -23 11 -36 24 -14 14 -28 22
-33 18 -4 -4 -4 1 -1 11 4 11 1 17 -7 17 -16 0 -28 24 -30 57 -1 12 -5 25 -10
30 -5 5 -6 2 -1 -6 6 -10 4 -12 -4 -7 -7 5 -10 14 -7 21 2 7 -1 18 -7 24 -9 9
-7 11 8 6 20 -7 20 -6 1 9 -15 12 -16 16 -5 16 12 0 12 2 -1 10 -13 9 -13 10
0 10 13 0 13 1 0 10 -11 7 -11 10 -2 10 10 0 10 5 2 20 -9 16 -8 20 5 20 9 0
13 5 10 10 -4 6 -11 8 -16 5 -10 -7 -1 24 13 42 6 7 4 14 -3 19 -8 5 -4 11 12
21 13 8 16 12 7 9 -22 -7 -24 10 -3 18 8 3 15 11 15 17 0 8 -5 7 -17 -2 -15
-13 -15 -12 -2 9 8 12 17 22 21 22 5 0 8 5 8 11 0 5 -6 7 -12 4 -7 -4 -5 0 5
8 14 11 15 16 5 21 -7 3 -3 4 10 2 23 -4 31 9 10 16 -9 3 -8 10 5 22 15 15 16
36 1 36 -3 0 -2 -4 1 -10 3 -5 1 -10 -4 -10 -6 0 -11 5 -11 10 0 6 -7 10 -15
10 -8 0 -15 -7 -15 -16z m43 -1458 c6 -15 -17 -16 -30 -1 -4 4 -2 5 5 1 6 -4
12 -2 12 3 0 15 7 14 13 -3z"/>
<path d="M1647 3694 c-4 -4 -18 -8 -31 -8 -30 -2 -68 -34 -59 -50 10 -15 11
-66 1 -66 -4 0 -8 -5 -8 -11 0 -5 4 -8 8 -5 5 3 9 -1 9 -9 0 -8 -4 -12 -9 -9
-10 6 -11 -10 -1 -19 10 -10 10 -57 0 -57 -4 0 -5 -6 0 -12 14 -23 14 -50 1
-42 -8 5 -7 0 2 -11 14 -17 13 -18 -2 -12 -12 4 -15 2 -11 -9 3 -7 10 -14 16
-14 6 0 2 -7 -9 -15 -12 -10 -14 -13 -3 -10 12 5 15 -2 15 -33 -1 -21 -7 -46
-15 -55 -11 -14 -11 -18 0 -22 8 -3 15 -19 15 -36 1 -22 -1 -27 -7 -18 -6 9
-9 10 -9 2 0 -6 5 -15 10 -18 7 -4 7 -13 0 -26 -8 -14 -7 -19 2 -19 10 0 10
-2 -1 -9 -7 -5 -9 -11 -3 -14 13 -9 9 -61 -7 -80 -11 -14 -11 -18 5 -24 16 -6
16 -7 -2 -14 -14 -6 -15 -8 -3 -8 9 -1 16 -8 16 -16 0 -8 -4 -12 -9 -9 -4 3
-8 0 -8 -5 0 -6 6 -11 13 -11 7 0 8 -3 2 -8 -12 -9 -16 -44 -4 -36 5 3 9 1 9
-4 0 -5 35 -8 78 -8 65 1 79 4 88 21 8 12 9 27 3 43 -11 29 -11 35 0 28 10 -7
9 13 -1 29 -4 6 -3 17 2 25 4 7 4 24 -1 37 -11 30 -11 36 -1 29 5 -3 9 1 9 9
0 8 -3 15 -6 15 -16 0 -4 63 14 77 19 15 19 15 -5 9 l-25 -6 23 12 c14 7 26 8
30 2 8 -11 44 -15 37 -4 -3 4 6 8 20 8 16 0 22 -5 18 -12 -4 -6 2 -4 12 4 14
11 19 12 22 3 3 -7 9 -13 14 -13 6 0 8 4 4 9 -3 5 0 13 6 17 7 4 10 3 7 -2 -3
-5 0 -15 8 -22 8 -7 14 -8 14 -3 0 6 8 8 18 5 14 -5 14 -4 2 4 -8 6 -18 8 -24
5 -5 -3 -6 -1 -2 5 8 14 36 5 55 -17 13 -15 13 -15 8 1 -3 9 0 19 9 22 8 3 13
2 10 -2 -3 -5 1 -9 8 -9 8 0 11 8 8 20 -4 15 -2 18 8 12 9 -5 11 -4 6 4 -5 8
-12 9 -19 2 -9 -7 -12 -1 -11 20 0 16 4 32 9 37 5 4 5 2 2 -4 -3 -6 0 -11 8
-11 11 0 12 4 4 14 -6 7 -9 19 -6 28 4 8 1 17 -5 21 -7 5 -8 2 -4 -7 4 -8 2
-7 -6 2 -7 9 -24 15 -38 14 -14 -1 -28 3 -32 9 -5 8 -8 7 -8 -2 0 -8 -8 -10
-26 -6 -22 6 -25 4 -19 -7 7 -11 6 -12 -6 -3 -8 5 -41 10 -75 9 -33 -1 -65 4
-70 10 -15 18 -16 38 -2 47 9 5 10 11 3 16 -12 8 -13 27 -3 37 4 4 3 16 -2 26
-7 12 -7 20 0 24 6 4 8 10 6 14 -3 4 4 13 16 20 11 7 17 8 14 3 -3 -6 2 -13
11 -16 9 -4 20 -1 25 6 6 11 8 11 8 0 0 -10 5 -10 20 -2 15 8 20 8 21 -2 0 -7
4 -4 9 7 l9 20 0 -20 c1 -17 3 -17 11 -5 5 8 10 10 10 5 0 -6 9 -11 21 -11 19
0 19 1 3 13 -10 7 -13 13 -7 13 7 0 19 -7 27 -16 15 -14 20 -11 17 9 -1 5 3 6
8 2 6 -3 8 -13 5 -23 -4 -10 -3 -13 3 -6 4 6 16 10 26 8 9 -1 15 2 11 7 -3 5
-10 6 -16 3 -7 -4 -8 -2 -4 4 8 13 36 5 36 -10 0 -5 5 -6 10 -3 6 4 8 11 5 16
-4 5 -2 9 3 9 5 0 6 20 2 45 -4 25 -3 48 2 51 5 3 4 11 -1 18 -6 7 -7 17 -3
21 4 5 1 5 -7 0 -8 -4 -17 -2 -22 6 -6 10 -9 11 -9 2 0 -7 -5 -13 -11 -13 -5
0 -7 5 -3 12 5 7 3 8 -7 2 -18 -11 -79 -13 -85 -2 -3 5 -10 5 -16 2 -5 -4 -25
-8 -44 -10 -25 -2 -33 0 -27 9 4 8 2 8 -9 -1 -11 -9 -18 -10 -23 -2 -3 6 -11
7 -17 4 -5 -4 -25 -8 -44 -10 -25 -2 -33 0 -27 9 5 9 3 9 -8 0 -10 -8 -19 -9
-25 -3 -6 6 -13 7 -17 4z"/>
<path d="M2281 3691 c-7 -5 -27 -8 -45 -7 -30 2 -31 1 -31 -35 0 -20 3 -35 8
-32 15 9 7 -10 -10 -24 -10 -8 -12 -11 -4 -7 11 5 13 3 8 -9 -3 -9 -2 -19 3
-22 13 -8 0 -36 -14 -28 -6 3 -2 -4 9 -17 11 -13 14 -20 8 -16 -8 4 -13 1 -13
-9 0 -9 4 -13 10 -10 6 3 7 -1 4 -9 -3 -9 -10 -13 -15 -10 -5 3 -9 0 -9 -5 0
-6 4 -11 9 -11 5 0 12 -7 15 -16 3 -8 2 -12 -4 -9 -14 9 -12 -9 2 -23 9 -9 9
-12 0 -12 -6 0 -9 -7 -5 -17 4 -10 2 -14 -4 -10 -7 5 -9 0 -6 -14 4 -16 8 -17
14 -7 5 8 7 0 4 -21 -2 -18 -6 -36 -9 -38 -3 -3 -1 -14 4 -24 7 -13 6 -22 -4
-31 -11 -11 -11 -14 2 -24 12 -9 12 -13 2 -19 -9 -6 -11 -4 -5 6 8 12 6 12 -8
0 -18 -14 -24 -26 -8 -17 5 3 14 -1 21 -9 8 -10 9 -15 2 -15 -7 0 -9 -7 -5
-17 4 -11 3 -14 -5 -9 -13 8 -6 -20 11 -41 6 -9 6 -13 -1 -13 -7 0 -9 -7 -5
-17 4 -11 3 -14 -5 -9 -8 5 -10 2 -6 -8 3 -9 9 -14 13 -12 13 8 3 -54 -11 -71
-7 -10 -8 -14 -1 -10 15 9 23 -13 11 -35 -6 -12 -5 -18 2 -18 6 0 9 -3 7 -7
-3 -5 32 -8 78 -8 46 -1 81 3 79 7 -3 4 -1 8 5 8 11 0 9 148 -2 167 -4 6 -3
14 2 18 11 6 9 84 -3 103 -3 6 -3 13 2 16 5 3 8 69 8 146 -1 78 2 144 6 147 5
2 5 10 1 16 -10 17 -11 137 0 144 4 2 3 11 -4 19 -6 7 -9 21 -5 29 4 11 2 14
-7 8 -22 -14 -49 -14 -41 -1 6 10 5 10 -7 1 -10 -8 -19 -9 -25 -3 -5 5 -15 5
-23 1z"/>
<path d="M2587 3684 c5 -14 3 -15 -15 -5 -15 8 -23 8 -28 -1 -5 -7 -3 -8 6 -3
9 6 11 4 6 -4 -5 -7 -15 -10 -23 -7 -12 5 -14 1 -10 -14 3 -11 2 -20 -2 -20
-4 0 -8 -7 -8 -15 0 -8 5 -15 10 -15 5 0 4 -7 -4 -16 -7 -9 -9 -18 -3 -22 10
-8 14 -52 4 -52 -3 0 -6 -9 -6 -20 0 -11 4 -20 9 -20 5 0 4 -7 -3 -15 -7 -8
-9 -15 -4 -15 5 0 9 -11 9 -25 0 -14 -3 -25 -6 -25 -3 0 -6 -7 -6 -15 0 -8 5
-15 10 -15 5 0 4 -7 -4 -16 -7 -9 -9 -18 -3 -22 10 -8 14 -52 4 -52 -3 0 -6
-9 -6 -20 0 -11 4 -20 9 -20 5 0 4 -7 -3 -15 -7 -8 -9 -15 -4 -15 5 0 9 -11 9
-25 0 -14 -3 -25 -6 -25 -3 0 -6 -7 -6 -15 0 -8 5 -15 10 -15 5 0 4 -7 -4 -16
-7 -9 -9 -18 -3 -22 10 -8 14 -52 4 -52 -3 0 -6 -9 -6 -20 0 -11 4 -20 9 -20
5 0 4 -7 -3 -15 -7 -8 -9 -15 -4 -15 5 0 9 -11 9 -25 0 -14 -2 -25 -5 -25 -3
0 -6 -9 -6 -19 0 -11 4 -17 8 -15 4 3 8 1 8 -3 0 -15 158 -9 172 6 10 11 10
14 1 18 -7 3 -13 9 -13 14 0 6 4 8 8 5 5 -3 9 1 9 9 0 8 -4 15 -9 15 -4 0 -8
5 -8 11 0 5 4 8 8 5 5 -3 9 1 9 9 0 8 -4 15 -9 15 -4 0 -8 5 -8 11 0 5 5 7 10
4 13 -8 9 17 -4 27 -6 4 -4 13 3 22 9 11 10 16 2 16 -6 0 -11 5 -11 11 0 5 5
7 11 3 7 -4 7 1 -1 16 -7 12 -8 20 -3 17 5 -4 10 0 10 8 0 8 -4 12 -8 9 -4 -2
-7 4 -6 15 0 11 5 17 11 14 5 -4 7 0 4 9 -4 10 0 14 13 13 10 -1 22 -4 25 -8
4 -4 13 -2 20 4 8 7 14 7 19 -1 3 -5 12 -10 18 -10 7 0 6 4 -3 10 -8 5 -10 10
-4 10 6 0 17 -7 24 -15 7 -8 15 -13 19 -11 9 5 31 -21 24 -28 -4 -3 -1 -6 6
-6 7 0 9 -4 6 -10 -3 -5 -1 -10 4 -10 6 0 10 -3 9 -7 -1 -5 4 -21 10 -36 16
-38 15 -45 -4 -21 -15 18 -15 18 -5 -2 6 -12 7 -25 3 -29 -4 -5 -1 -4 7 0 11
6 13 4 8 -9 -4 -11 -3 -15 4 -11 6 4 9 1 8 -6 -3 -21 12 -69 22 -69 5 0 6 -7
3 -15 -4 -9 0 -15 10 -15 9 0 16 -4 16 -8 0 -4 35 -8 78 -8 71 1 80 3 89 23 9
18 7 25 -6 35 -14 12 -15 11 -2 -4 9 -12 10 -18 2 -18 -6 0 -11 3 -12 8 -4 37
-12 68 -19 77 -6 7 -5 16 1 22 8 8 5 17 -10 32 -12 12 -16 21 -8 21 7 0 6 4
-4 10 -10 6 -15 20 -14 35 2 14 -1 25 -6 25 -5 0 -8 3 -8 8 3 19 -2 33 -10 28
-5 -3 -12 1 -15 10 -4 10 -2 13 7 8 6 -4 3 2 -7 14 -11 12 -25 22 -32 22 -13
0 -13 25 1 37 4 4 5 1 1 -7 -4 -8 1 -5 10 8 9 12 23 22 31 22 8 0 11 5 8 10
-3 6 1 10 9 10 10 0 13 6 9 17 -5 12 -3 14 7 8 8 -5 11 -3 8 6 -3 8 3 24 13
37 10 13 15 30 12 38 -3 8 0 14 6 14 7 0 5 11 -6 28 l-17 27 24 -20 c14 -11
19 -13 13 -5 -7 8 -13 22 -13 33 0 11 -4 15 -11 11 -8 -5 -9 -2 -2 11 13 22
-13 79 -30 68 -7 -4 -6 1 2 10 12 15 12 17 -3 11 -10 -4 -16 -1 -16 9 0 8 -8
21 -17 28 -17 13 -17 13 -3 -6 14 -20 14 -20 -7 -1 -13 10 -21 22 -18 26 2 4
-2 7 -10 7 -8 0 -12 -4 -9 -9 4 -5 -3 -4 -15 4 -12 7 -21 16 -21 19 0 4 -7 10
-16 13 -9 4 -13 2 -8 -5 4 -7 -1 -9 -15 -4 -11 3 -34 7 -51 7 -16 1 -30 6 -30
12 0 7 -3 7 -8 1 -9 -13 -94 -16 -86 -3 4 5 -4 4 -17 -3 -13 -7 -24 -12 -24
-12 0 0 -11 5 -24 12 -18 10 -22 10 -16 1 6 -10 1 -12 -19 -8 -19 4 -26 1 -27
-11 0 -11 -3 -8 -9 7 -5 12 -12 22 -14 22 -3 0 -3 -7 1 -16z m206 -142 c9 -2
17 2 17 9 0 8 4 8 15 -1 8 -6 18 -9 24 -6 12 8 73 -43 65 -55 -3 -5 0 -9 6 -9
6 0 10 -8 8 -17 -1 -10 1 -24 5 -30 5 -8 4 -13 -2 -13 -6 0 -11 -7 -11 -16 0
-9 5 -12 13 -8 7 5 7 1 -2 -10 -8 -9 -28 -24 -44 -32 -19 -11 -27 -20 -23 -31
5 -13 4 -14 -9 -3 -9 7 -15 8 -15 2 0 -6 -20 -10 -49 -8 -27 1 -47 -2 -45 -6
3 -4 0 -8 -5 -8 -6 0 -11 5 -11 10 0 6 -6 9 -12 8 -7 -2 -12 3 -10 10 1 6 -3
12 -9 12 -8 0 -7 6 2 17 11 13 11 15 1 9 -16 -10 -13 25 3 37 6 4 5 10 -4 16
-12 8 -12 12 -2 25 9 11 10 16 2 16 -6 0 -11 5 -11 11 0 5 5 7 11 3 8 -4 8 -1
1 13 -18 33 -5 59 29 57 16 -1 29 3 29 9 0 8 3 8 8 2 4 -5 15 -11 25 -13z
m102 -202 c-3 -5 -12 -10 -18 -10 -7 0 -6 4 3 10 19 12 23 12 15 0z m42 -375
c0 -8 -4 -12 -9 -9 -5 3 -6 10 -3 15 9 13 12 11 12 -6z"/>
<path d="M2870 3521 c0 -5 7 -12 16 -15 14 -5 15 -4 4 9 -14 17 -20 19 -20 6z"/>
<path d="M3280 3690 c-8 -5 -11 -10 -6 -10 6 0 1 -7 -10 -16 -14 -11 -16 -17
-6 -21 10 -4 10 -8 0 -21 -10 -12 -10 -14 0 -8 7 4 12 1 12 -9 0 -9 -4 -13
-10 -10 -5 3 -10 1 -10 -4 0 -6 5 -11 11 -11 8 0 7 -6 -2 -17 -11 -13 -11 -17
-1 -20 6 -3 10 -9 6 -14 -3 -5 1 -9 8 -9 9 0 9 -3 -2 -10 -8 -5 -10 -10 -5
-10 6 0 3 -5 -5 -10 -12 -8 -12 -10 -1 -10 11 0 11 -3 0 -17 -10 -11 -10 -14
-1 -9 7 4 12 1 12 -9 0 -9 -4 -13 -10 -10 -5 3 -10 1 -10 -4 0 -6 5 -11 11
-11 8 0 7 -6 -2 -17 -10 -11 -10 -14 -1 -9 15 9 15 1 1 -26 -8 -15 -8 -19 0
-14 12 8 15 -6 4 -18 -10 -10 -13 -37 -3 -31 5 3 12 1 15 -5 4 -6 3 -10 -2 -9
-20 3 -27 -2 -13 -11 13 -9 13 -10 0 -10 -12 0 -13 -2 -1 -9 8 -5 10 -14 5
-22 -12 -19 -12 -49 -1 -49 5 0 3 -8 -4 -17 -10 -11 -10 -14 -1 -9 6 4 12 3
12 -3 0 -5 -6 -12 -12 -14 -10 -4 -10 -6 0 -6 6 -1 12 -6 12 -12 0 -5 -4 -8
-8 -5 -5 3 -9 -1 -9 -9 0 -8 4 -12 8 -10 3 3 5 -21 4 -53 -2 -31 -4 -57 -5
-57 -1 0 -3 -10 -4 -22 -2 -13 2 -23 7 -23 5 0 4 -6 -2 -14 -8 -10 -9 -16 -1
-21 5 -3 10 -11 10 -16 0 -6 -4 -8 -8 -5 -5 3 -9 -1 -9 -8 0 -8 7 -12 15 -8
11 4 13 1 7 -8 -6 -10 -4 -12 7 -7 9 3 21 0 28 -6 10 -9 11 -9 6 0 -7 14 130
13 153 -1 9 -6 12 -5 7 2 -8 13 132 11 153 -2 10 -7 12 -6 6 4 -6 10 -3 12 12
8 11 -3 28 -1 38 5 12 6 16 6 11 -1 -4 -7 5 -10 23 -10 19 1 28 5 24 12 -4 6
1 5 10 -3 15 -12 17 -11 19 5 0 11 1 27 0 37 -1 9 4 17 11 17 8 0 7 3 -2 9
-10 7 -12 13 -5 23 6 7 10 18 9 23 -3 20 -17 45 -25 45 -5 0 -11 -8 -13 -17
-4 -16 -5 -15 -6 1 -1 20 -1 20 -17 0 -8 -10 -13 -14 -10 -8 3 7 -3 14 -14 17
-11 3 -18 1 -15 -3 3 -5 0 -12 -6 -16 -7 -4 -9 -3 -5 4 3 6 1 14 -6 19 -24 15
-36 11 -32 -11 2 -11 2 -15 -2 -8 -3 6 -21 12 -40 12 -25 0 -33 4 -28 13 4 6
-4 2 -18 -11 -24 -21 -38 -21 -38 2 0 6 4 5 9 -3 5 -8 11 -9 15 -3 3 5 -1 12
-9 16 -9 3 -19 -3 -26 -15 -8 -16 -13 -18 -25 -8 -11 9 -14 9 -14 -1 0 -8 -3
-10 -6 -7 -4 4 -1 14 7 24 12 15 12 16 -4 10 -14 -5 -16 -2 -13 18 3 14 0 25
-6 25 -7 0 -7 4 0 13 6 6 10 17 10 22 0 6 -4 16 -10 23 -7 8 -7 12 0 12 6 0 9
11 6 25 -4 24 3 30 35 26 8 -2 10 2 5 10 -5 8 -3 10 7 3 19 -11 99 -13 99 -2
0 5 5 6 12 2 17 -11 98 -12 98 -2 0 5 10 4 21 -3 15 -8 19 -8 15 0 -4 6 -2 11
3 11 6 0 11 7 11 16 0 8 -4 13 -8 10 -4 -2 -9 5 -9 17 -2 17 0 19 7 7 8 -13
10 -13 10 2 0 9 -4 19 -10 23 -13 8 0 36 14 29 6 -3 0 4 -14 15 -14 12 -18 20
-10 18 8 -2 12 -2 7 0 -4 3 -4 10 0 16 4 8 2 8 -9 -1 -18 -14 -70 -13 -80 3
-5 6 -8 3 -8 -7 0 -11 -5 -15 -15 -12 -8 4 -13 9 -10 13 2 4 -3 8 -11 8 -8 0
-13 -6 -10 -13 3 -9 -3 -11 -20 -8 -14 3 -23 1 -20 -4 3 -5 -1 -9 -9 -9 -11 0
-12 4 -3 14 6 7 8 16 4 20 -3 3 -6 1 -6 -5 0 -7 -9 -12 -19 -12 -11 0 -21 -3
-24 -7 -2 -5 -2 -2 -1 5 2 8 -4 10 -20 6 -13 -3 -27 -1 -30 5 -4 6 -2 11 4 11
6 0 4 7 -5 16 -12 12 -13 19 -5 24 15 10 15 21 -2 31 -7 5 -8 9 -2 9 6 0 10
17 10 37 -1 23 4 38 13 41 8 3 11 0 8 -5 -3 -5 0 -10 8 -10 8 0 12 4 9 9 -3 4
0 8 5 8 6 0 11 -5 11 -11 0 -5 5 -7 10 -4 6 4 8 11 5 16 -3 5 1 6 9 3 9 -3 14
-10 11 -14 -3 -5 0 -12 6 -16 7 -4 9 -3 5 4 -3 6 -2 13 4 17 5 3 10 1 10 -6 0
-6 8 -3 18 8 9 10 14 14 10 9 -19 -24 -4 -28 36 -11 11 5 26 4 36 -3 10 -6 26
-9 36 -8 11 2 26 -2 34 -8 13 -10 13 -9 1 7 -12 15 -11 17 6 17 16 0 20 6 18
24 -2 14 -7 31 -11 38 -6 10 -5 11 7 1 13 -10 16 -10 16 2 0 8 -5 15 -11 15
-6 0 -4 5 4 10 10 6 11 10 3 10 -7 0 -13 5 -13 11 0 5 5 7 11 4 6 -4 5 1 -2
13 -8 12 -19 17 -32 14 -15 -4 -18 -2 -12 8 6 9 4 11 -5 5 -21 -13 -101 -14
-93 -2 4 6 1 7 -6 2 -23 -13 -82 -15 -74 -2 4 8 2 8 -9 -1 -11 -9 -18 -10 -23
-2 -3 6 -11 7 -17 4 -5 -4 -25 -8 -44 -10 -25 -2 -33 0 -27 9 4 8 2 8 -9 -1
-11 -9 -18 -10 -23 -2 -3 6 -11 7 -17 4 -17 -11 -79 -14 -73 -4 8 12 4 12 -15
0z"/>
<path d="M4405 3689 c4 -11 -4 -14 -37 -12 -40 2 -42 1 -23 -13 19 -15 19 -15
-9 -8 -23 5 -27 4 -21 -7 6 -11 5 -11 -5 -2 -7 6 -19 9 -27 6 -12 -5 -12 -7
-1 -14 10 -7 9 -9 -5 -9 -10 0 -15 -4 -12 -10 3 -5 0 -7 -8 -4 -15 6 -30 -10
-34 -36 -1 -8 -7 -16 -13 -18 -8 -3 -7 -8 1 -18 10 -12 9 -13 -6 -8 -13 5 -16
4 -11 -4 4 -7 2 -12 -4 -12 -6 0 -8 -5 -3 -12 4 -7 6 -26 4 -41 -1 -15 3 -35
11 -44 10 -12 10 -17 1 -20 -8 -3 -6 -11 7 -25 37 -41 37 -43 21 -56 -14 -11
-14 -11 3 -5 19 6 19 6 0 -13 -10 -11 -20 -16 -22 -12 -2 4 -8 8 -13 8 -6 0
-7 -4 -4 -10 6 -10 -9 -15 -30 -10 -5 1 -7 -2 -3 -6 10 -9 -12 -35 -23 -28 -5
3 -8 0 -7 -8 2 -7 -3 -12 -11 -10 -12 3 -12 1 0 -14 12 -15 12 -17 0 -9 -11 6
-13 4 -8 -9 5 -11 3 -15 -5 -10 -7 5 -9 2 -5 -9 3 -9 -1 -18 -11 -22 -14 -5
-14 -7 -2 -15 8 -6 10 -10 4 -10 -13 0 -13 -42 1 -52 6 -5 5 -8 -2 -8 -7 0
-10 -7 -7 -15 4 -8 11 -12 18 -8 6 4 6 0 -2 -9 -9 -12 -10 -17 -1 -20 6 -2 12
-17 12 -33 0 -17 2 -24 4 -17 3 6 9 12 14 12 4 0 5 -8 2 -17 -5 -13 -2 -15 11
-10 10 4 15 3 11 -3 -3 -6 -1 -10 5 -10 6 0 8 -5 5 -10 -4 -6 -1 -9 7 -8 7 2
12 -3 10 -10 -1 -8 2 -11 7 -8 15 9 42 -5 34 -18 -4 -6 1 -5 10 3 17 13 22 7
18 -21 0 -4 10 -3 24 2 16 6 25 6 25 0 0 -6 5 -10 11 -10 5 0 7 5 3 12 -5 7
-3 8 7 2 8 -5 22 -7 33 -5 13 2 16 -1 10 -11 -4 -7 2 -5 13 5 14 12 23 15 28
8 9 -15 28 -14 19 2 -5 9 -4 9 6 0 14 -13 43 -6 34 8 -3 5 3 6 12 2 13 -5 15
-3 9 8 -8 12 -6 12 8 0 11 -9 17 -10 17 -2 0 7 10 10 25 7 13 -3 28 0 31 6 4
7 2 8 -4 4 -8 -4 -10 -2 -6 7 3 9 13 13 26 9 16 -4 19 -2 14 9 -4 8 -1 6 8 -5
8 -10 20 -15 26 -11 9 6 9 2 0 -15 -8 -15 -8 -20 -1 -16 6 4 14 0 17 -8 3 -9
13 -16 21 -16 8 0 11 5 7 12 -5 7 -3 8 6 3 8 -5 49 -9 92 -10 74 -1 78 0 78
20 0 13 -10 27 -25 35 -13 7 -21 18 -18 23 4 6 -1 8 -11 4 -13 -5 -17 -3 -13
7 3 8 -6 24 -20 37 -15 13 -23 18 -19 12 4 -7 2 -13 -3 -13 -15 0 -14 13 2 29
8 10 8 12 0 7 -7 -4 -11 1 -10 13 1 12 6 17 16 13 9 -3 12 -1 7 6 -4 7 -1 15
8 18 9 3 16 10 16 16 0 5 -5 6 -12 2 -7 -5 -8 -3 -4 5 5 7 15 10 23 7 8 -3 12
-2 8 3 -3 5 -2 11 2 14 5 2 2 2 -6 0 -11 -3 -10 1 3 16 10 11 15 25 10 32 -5
8 -3 10 6 4 10 -6 12 -4 7 9 -4 10 -3 15 3 11 10 -6 14 7 11 33 -1 6 2 12 7
12 5 0 9 7 9 15 0 8 -5 15 -11 15 -5 0 -1 7 10 15 10 8 15 15 11 15 -4 0 -2
10 4 23 6 12 8 19 4 15 -5 -4 -14 -3 -22 3 -10 9 -13 8 -13 -2 0 -11 -2 -11
-10 1 -7 11 -10 11 -10 2 0 -7 -4 -10 -10 -7 -15 9 -89 12 -84 3 3 -5 -2 -8
-10 -8 -9 0 -16 -5 -16 -11 0 -5 6 -7 13 -4 6 4 4 0 -5 -8 -10 -8 -15 -17 -11
-20 3 -4 1 -7 -5 -7 -7 0 -12 -5 -12 -11 0 -5 5 -7 12 -3 7 4 1 -8 -12 -26
-13 -18 -19 -30 -12 -26 7 4 12 3 12 -3 0 -5 -7 -14 -16 -19 -9 -5 -16 -13
-16 -18 0 -5 -4 -8 -9 -7 -4 2 -6 -3 -3 -10 3 -8 -2 -14 -10 -14 -9 0 -19 10
-22 21 -8 26 -45 62 -59 58 -5 -2 -7 -1 -3 3 4 4 0 14 -8 22 -8 8 -12 19 -9
24 4 5 -2 6 -11 2 -13 -5 -15 -3 -8 9 13 23 70 68 77 62 3 -3 16 4 29 16 13
13 17 19 10 15 -12 -6 -12 -3 -1 16 7 13 12 27 11 31 -1 5 1 7 6 7 20 -3 23 3
11 18 -10 11 -10 14 -1 9 9 -5 12 4 12 38 0 25 -4 47 -9 50 -5 3 -7 14 -4 24
2 11 -4 25 -14 33 -17 13 -17 13 -3 -6 14 -19 14 -19 -3 -6 -10 8 -16 20 -13
28 3 8 1 11 -4 8 -6 -3 -10 -1 -10 5 0 6 -4 8 -10 5 -5 -3 -10 1 -10 9 0 10
-6 13 -17 9 -12 -5 -14 -3 -8 7 6 10 4 12 -8 7 -10 -3 -17 -2 -17 3 0 5 -7 7
-15 4 -12 -5 -13 -2 -8 12 7 18 6 18 -11 2 -19 -20 -31 -24 -21 -8 3 6 1 10
-4 10 -6 0 -11 -6 -11 -12 0 -9 -4 -8 -10 2 -5 8 -10 11 -10 6 0 -5 -7 -3 -15
4 -13 11 -14 10 -10 -1z m24 -121 c11 -10 13 -10 7 0 -11 20 8 14 24 -7 7 -11
17 -18 22 -15 4 3 8 2 9 -3 0 -4 2 -21 4 -37 2 -16 -1 -39 -8 -50 -6 -12 -10
-24 -9 -28 1 -5 -1 -7 -5 -7 -20 3 -34 -2 -29 -10 3 -5 -3 -11 -14 -14 -31 -8
-35 -8 -36 3 -3 23 -5 24 -14 10 -8 -12 -10 -11 -10 7 0 12 -5 25 -10 28 -6 4
-7 12 -3 18 11 18 12 38 2 31 -5 -3 -6 -10 -3 -16 4 -7 2 -8 -5 -4 -12 8 -8
19 18 50 9 11 10 16 4 12 -20 -11 -15 1 9 24 25 23 30 24 47 8z m-84 -350 c5
4 5 1 1 -5 -4 -8 -1 -13 8 -13 8 0 18 -9 21 -20 4 -11 11 -17 17 -14 8 5 9 1
4 -11 -6 -16 -4 -16 11 -4 9 8 14 9 10 3 -8 -14 20 -54 39 -54 8 0 14 -7 14
-16 0 -8 5 -12 10 -9 6 3 10 1 10 -5 0 -6 4 -9 9 -6 8 5 8 -15 1 -34 -1 -3 -2
-8 -1 -12 0 -4 -7 -4 -16 -1 -12 5 -14 3 -8 -8 8 -12 6 -12 -8 0 -9 7 -17 9
-17 4 0 -5 -9 -9 -20 -10 -13 -1 -18 2 -13 10 4 7 0 6 -10 -2 -14 -11 -20 -11
-34 0 -9 8 -14 9 -10 2 4 -6 2 -10 -5 -8 -39 9 -55 19 -73 43 -12 18 -14 23
-4 17 12 -8 12 -7 -1 5 -8 8 -15 22 -15 30 0 8 -3 18 -8 21 -5 4 -1 18 8 33
10 14 13 26 9 26 -5 0 2 10 16 21 14 11 19 17 11 13 -9 -5 -12 -3 -7 4 5 8 13
9 25 2 10 -5 22 -6 26 -2z m480 -308 c3 -5 1 -10 -4 -10 -6 0 -11 5 -11 10 0
6 2 10 4 10 3 0 8 -4 11 -10z"/>
<path d="M4395 3561 c-3 -5 -2 -12 3 -15 5 -3 9 1 9 9 0 17 -3 19 -12 6z"/>
<path d="M4311 3037 c2 -1 13 -9 24 -17 19 -14 19 -14 6 3 -7 9 -18 17 -24 17
-6 0 -8 -1 -6 -3z"/>
<path d="M5535 3690 c6 -10 1 -12 -19 -8 -18 4 -26 2 -23 -6 3 -6 -8 -12 -25
-13 -19 -2 -26 2 -22 9 4 7 3 8 -4 4 -7 -4 -12 -15 -12 -24 0 -10 -3 -13 -8
-7 -11 16 -41 15 -35 -1 4 -10 0 -12 -13 -7 -10 3 -15 2 -11 -3 3 -5 -6 -14
-19 -21 -16 -7 -22 -8 -17 -1 4 7 1 8 -6 4 -7 -5 -10 -15 -6 -23 5 -14 3 -14
-12 -2 -9 8 -14 9 -11 3 4 -5 -4 -18 -17 -28 -14 -10 -22 -23 -19 -28 3 -4 0
-7 -7 -6 -6 2 -14 -3 -17 -11 -3 -9 0 -11 8 -6 9 5 11 4 6 -4 -6 -9 -11 -9
-21 -1 -10 9 -13 7 -11 -7 2 -10 -6 -24 -16 -31 -15 -11 -17 -17 -7 -28 10
-12 10 -15 -2 -12 -9 2 -13 -4 -11 -16 2 -13 -1 -16 -10 -10 -10 6 -10 4 1 -9
10 -13 10 -17 1 -17 -10 0 -10 -3 -1 -14 9 -10 9 -16 1 -21 -6 -4 -9 -14 -5
-22 5 -14 3 -14 -11 -2 -16 13 -16 12 -5 -8 8 -16 8 -23 1 -23 -8 0 -8 -6 0
-20 7 -13 7 -20 1 -20 -12 0 -2 -32 13 -42 7 -5 5 -8 -4 -8 -13 0 -13 -2 -1
-9 13 -8 13 -12 0 -27 -12 -16 -12 -17 2 -12 13 5 16 2 12 -13 -3 -11 0 -19 7
-19 10 0 10 -3 0 -14 -9 -12 -7 -17 9 -28 12 -7 21 -18 21 -23 0 -6 7 -20 16
-31 8 -10 12 -13 8 -5 -5 9 -3 12 4 7 7 -4 12 -14 12 -22 0 -8 10 -25 21 -37
12 -12 19 -16 15 -10 -5 9 -2 11 8 7 8 -3 13 -14 11 -25 -3 -16 -1 -18 17 -8
15 8 19 8 14 0 -4 -7 0 -11 12 -11 10 0 28 -9 40 -20 12 -12 22 -16 22 -10 0
5 5 10 11 10 5 0 7 -5 4 -10 -4 -7 3 -9 20 -6 20 4 24 2 17 -7 -8 -9 -4 -12
13 -12 13 0 21 3 18 8 -2 4 1 7 6 7 6 0 11 -3 11 -8 0 -10 131 -9 148 1 7 5
12 3 12 -4 0 -8 4 -8 15 1 11 9 15 9 15 1 0 -7 5 -9 10 -6 6 4 7 11 4 17 -4 6
-2 8 4 4 5 -3 13 0 16 6 3 7 3 2 0 -12 l-6 -25 17 23 c9 12 22 22 30 22 24 0
26 17 5 43 -15 18 -17 28 -9 33 7 4 9 3 5 -4 -3 -6 -3 -13 2 -16 4 -2 8 6 8
20 0 14 -5 23 -11 20 -7 -2 -10 7 -9 25 2 23 -1 27 -15 21 -9 -5 -26 -7 -39
-6 -15 1 -21 -3 -18 -11 5 -13 -58 -6 -85 10 -12 8 -12 6 0 -8 8 -10 11 -20 7
-24 -3 -3 -6 -1 -6 5 0 7 -7 12 -16 12 -9 0 -13 5 -9 13 4 6 -1 3 -9 -7 -15
-18 -21 -15 -17 8 1 5 -5 4 -13 -4 -13 -10 -16 -10 -16 0 0 9 -4 9 -17 -1 -13
-11 -15 -11 -9 -1 5 9 3 13 -5 11 -26 -3 -39 1 -39 12 0 7 5 8 13 3 7 -5 4 -1
-6 9 -11 9 -24 17 -31 17 -6 0 -4 -5 4 -11 13 -9 13 -10 0 -6 -8 2 -15 9 -15
15 0 6 -10 19 -22 27 -14 10 -20 21 -16 32 5 12 2 15 -9 11 -10 -4 -14 0 -13
15 1 12 -3 25 -9 29 -7 5 -7 8 2 8 10 0 9 5 -4 17 -9 9 -13 18 -8 20 11 4 10
65 -1 83 -6 9 -4 11 5 5 9 -6 10 -2 5 15 -6 17 -4 21 6 14 10 -6 10 -3 -1 11
-9 11 -10 16 -2 11 7 -4 12 -2 12 5 0 7 8 21 18 32 9 11 12 18 6 14 -6 -3 -11
0 -11 8 0 8 4 12 8 9 11 -6 49 32 41 41 -4 3 1 3 11 -1 12 -4 17 -1 17 11 0 9
4 14 9 10 5 -3 12 -2 15 3 3 5 19 7 35 6 17 -1 34 2 37 7 3 6 11 6 19 -1 11
-9 12 -6 9 12 -5 20 -4 21 6 5 11 -17 12 -17 28 1 9 10 13 13 9 6 -4 -7 -3
-15 3 -19 5 -3 10 0 10 7 0 10 2 10 9 -1 7 -11 9 -11 14 0 5 12 6 12 6 0 1
-11 4 -11 18 0 9 8 14 9 10 3 -4 -7 0 -17 8 -24 13 -11 14 -10 9 6 -7 18 -7
18 13 2 18 -16 21 -16 39 -2 10 8 13 13 7 9 -7 -3 -13 -2 -13 3 0 6 7 12 15
15 8 4 12 15 10 26 -2 11 2 25 10 31 10 8 10 16 2 34 -7 14 -15 22 -19 20 -5
-3 -8 0 -8 6 0 6 -4 8 -10 5 -5 -3 -10 -1 -10 6 0 8 -5 7 -17 -2 -9 -8 -14 -9
-10 -3 4 7 0 15 -9 18 -8 3 -13 2 -10 -3 8 -13 -38 0 -46 13 -5 7 -8 7 -8 1 0
-12 -90 -13 -109 -1 -10 7 -12 6 -6 -4z"/>
<path d="M6123 3685 c-6 -7 -10 -15 -7 -18 3 -2 -2 -7 -11 -11 -9 -3 -13 -2
-10 4 10 16 -11 11 -25 -5 -7 -9 -19 -14 -26 -11 -8 3 -13 2 -13 -2 3 -19 -2
-23 -16 -12 -13 11 -14 10 -9 -6 4 -10 4 -16 -1 -12 -4 4 -16 -4 -27 -17 -11
-14 -24 -22 -29 -19 -6 3 -13 -3 -16 -15 -3 -12 -10 -21 -15 -21 -5 0 -6 -4
-3 -10 3 -5 2 -10 -4 -10 -6 0 -15 -10 -22 -21 -7 -15 -8 -19 0 -15 7 5 8 1 5
-9 -4 -10 -13 -14 -22 -10 -9 3 -13 3 -9 -1 4 -4 1 -14 -6 -22 -9 -12 -9 -16
0 -19 7 -2 9 -11 6 -19 -3 -7 -10 -11 -15 -8 -6 4 -5 -3 1 -15 10 -18 9 -21
-6 -21 -15 0 -16 -2 -3 -10 14 -9 7 -14 -15 -11 -5 1 -1 -6 9 -14 17 -13 16
-19 -5 -17 -15 2 1 -80 18 -93 17 -13 17 -14 1 -20 -10 -4 -15 -11 -12 -16 3
-5 9 -7 13 -5 4 3 8 -1 8 -9 0 -8 -5 -15 -11 -15 -6 0 -3 -5 7 -11 14 -8 16
-14 6 -25 -9 -11 -9 -14 0 -14 7 0 9 -4 6 -10 -3 -5 2 -10 12 -11 10 0 13 -3
6 -6 -10 -3 -10 -7 0 -18 7 -7 17 -10 22 -7 6 3 4 -2 -4 -11 -9 -12 -10 -17
-2 -17 7 0 9 -4 6 -10 -3 -6 1 -7 9 -4 9 3 16 1 16 -5 0 -6 15 -26 33 -43 17
-18 29 -29 25 -24 -5 6 -8 15 -8 20 0 6 8 -1 17 -14 10 -14 17 -28 16 -32 -2
-4 5 -4 14 -1 11 5 14 3 8 -6 -6 -10 -3 -11 14 -2 17 10 21 9 21 -4 0 -15 14
-19 58 -15 12 1 22 -2 22 -7 0 -4 13 -9 30 -9 16 -1 28 2 25 6 -2 3 2 7 10 7
8 0 12 -4 9 -9 -6 -9 25 -6 43 5 6 4 14 3 18 -3 8 -13 25 -13 25 1 0 5 -5 7
-12 3 -6 -4 -8 -3 -5 4 4 5 16 8 27 5 11 -3 27 0 35 7 8 7 22 10 30 6 11 -4
14 -2 9 6 -5 7 0 9 14 6 15 -4 23 0 28 14 3 11 8 17 11 14 3 -2 16 7 30 22 14
15 33 26 42 25 10 -2 11 0 3 3 -10 5 -10 9 -1 20 6 8 15 12 19 9 4 -2 7 5 6
18 -1 13 4 21 12 19 6 -1 13 8 14 20 2 42 3 47 10 53 4 4 4 14 1 23 -4 10 -2
13 5 8 6 -3 14 -1 18 5 3 6 0 15 -7 20 -11 7 -11 9 -1 9 19 0 14 207 -5 215
-8 2 -12 9 -8 14 3 5 1 13 -5 16 -8 5 -8 11 0 20 8 10 8 15 -1 21 -8 5 -9 3
-4 -6 5 -9 4 -11 -4 -6 -9 6 -9 11 1 24 10 12 10 14 1 8 -9 -5 -19 5 -30 28
-9 19 -20 33 -25 30 -8 -5 -12 11 -8 31 1 5 -1 7 -5 3 -8 -8 -29 10 -38 32 -4
11 -6 10 -7 -5 -1 -19 -2 -18 -10 2 -6 14 -15 21 -24 17 -8 -3 -17 0 -22 7 -5
8 -3 10 7 4 11 -6 12 -5 2 5 -10 11 -15 11 -29 -1 -15 -12 -17 -12 -9 0 6 11
4 13 -10 7 -16 -6 -16 -4 -4 10 13 16 12 16 -8 5 -20 -10 -23 -9 -23 6 0 14
-2 15 -9 5 -7 -11 -9 -10 -15 3 -3 10 -11 13 -18 8 -22 -13 -51 -14 -60 -1 -5
9 -8 9 -8 1 0 -6 -8 -10 -17 -8 -10 1 -26 -2 -35 -6 -11 -6 -20 -5 -25 5 -7
11 -10 12 -20 1z m165 -150 c4 -4 1 -5 -5 -1 -7 4 -13 2 -13 -3 0 -6 15 -11
33 -11 24 0 28 -3 17 -10 -13 -8 -12 -10 3 -10 9 0 17 -7 17 -16 0 -8 3 -13 8
-11 9 6 33 -19 25 -27 -4 -3 -1 -6 6 -6 7 0 10 -4 6 -9 -3 -5 2 -17 11 -25 11
-12 12 -16 2 -16 -10 0 -10 -2 1 -9 8 -5 11 -16 8 -25 -4 -9 -2 -16 3 -16 6 0
10 -5 10 -11 0 -5 -6 -7 -12 -3 -7 4 -4 -3 6 -15 16 -18 17 -21 3 -16 -17 7
-17 -7 -2 -55 3 -10 2 -21 -3 -24 -5 -3 -8 -17 -7 -31 2 -14 -1 -27 -6 -31 -5
-3 -6 -11 -2 -17 4 -7 -1 -6 -11 2 -15 12 -17 12 -14 0 2 -8 8 -17 13 -21 6
-5 5 -8 -3 -8 -7 0 -11 -3 -9 -7 3 -5 -11 -24 -30 -43 -20 -19 -32 -29 -28
-22 6 11 3 12 -14 3 -11 -7 -21 -14 -21 -17 0 -3 5 -2 12 2 7 4 8 3 4 -5 -6
-9 -11 -9 -21 -1 -9 8 -15 8 -20 0 -3 -6 -11 -8 -16 -5 -5 4 -9 1 -9 -6 0 -7
-7 -4 -15 7 -8 10 -15 15 -15 10 0 -5 -6 -3 -14 3 -10 8 -16 9 -21 1 -3 -6
-11 -8 -16 -4 -5 3 -7 9 -4 14 3 5 -4 7 -15 5 -14 -3 -20 1 -20 14 0 9 -10 22
-22 27 -13 6 -17 9 -10 7 7 -1 2 11 -10 28 -19 26 -20 31 -8 39 8 5 10 10 5
10 -6 0 -15 -4 -21 -10 -6 -6 -9 1 -9 23 1 17 -2 43 -7 56 -7 19 -6 22 8 17
13 -5 14 -3 7 6 -14 19 -14 61 0 70 9 6 9 8 0 8 -7 0 -13 5 -13 11 0 5 6 7 13
3 7 -5 6 0 -3 11 -12 15 -12 17 -1 10 11 -6 13 -4 7 10 -5 14 -4 15 7 7 10 -8
13 -6 13 8 0 10 -5 16 -11 13 -5 -4 -1 4 10 17 13 15 15 21 5 16 -8 -4 -7 -1
4 8 11 9 15 20 10 28 -5 9 -2 8 11 -2 10 -8 16 -10 12 -4 -3 6 3 18 14 27 10
9 19 14 19 10 0 -4 7 2 16 13 15 19 16 19 10 -1 -6 -19 -5 -19 7 -3 8 10 17
15 20 11 4 -3 7 -2 7 4 0 12 76 10 88 -2z m-103 -514 c3 -5 1 -12 -5 -16 -5
-3 -10 1 -10 9 0 18 6 21 15 7z"/>
<path d="M1560 3679 c0 -5 5 -7 10 -4 6 3 10 8 10 11 0 2 -4 4 -10 4 -5 0 -10
-5 -10 -11z"/>
<path d="M2055 3630 c3 -5 8 -10 11 -10 2 0 4 5 4 10 0 6 -5 10 -11 10 -5 0
-7 -4 -4 -10z"/>
<path d="M780 3609 c0 -5 5 -7 10 -4 6 3 10 8 10 11 0 2 -4 4 -10 4 -5 0 -10
-5 -10 -11z"/>
<path d="M1539 3583 c-13 -16 -12 -17 4 -4 16 13 21 21 13 21 -2 0 -10 -8 -17
-17z"/>
<path d="M740 3576 c0 -2 8 -10 18 -17 15 -13 16 -12 3 4 -13 16 -21 21 -21
13z"/>
<path d="M810 3511 c0 -6 4 -12 8 -15 5 -3 9 1 9 9 0 8 -4 15 -9 15 -4 0 -8
-4 -8 -9z"/>
<path d="M1539 3423 c-13 -16 -12 -17 4 -4 9 7 17 15 17 17 0 8 -8 3 -21 -13z"/>
<path d="M5147 3359 c7 -7 15 -10 18 -7 3 3 -2 9 -12 12 -14 6 -15 5 -6 -5z"/>
<path d="M3086 3352 c-3 -5 1 -9 9 -9 8 0 12 4 9 9 -3 4 -7 8 -9 8 -2 0 -6 -4
-9 -8z"/>
<path d="M4545 3319 c-4 -6 -5 -12 -2 -15 2 -3 7 2 10 11 7 17 1 20 -8 4z"/>
<path d="M2193 2975 c0 -8 4 -12 9 -9 5 3 6 10 3 15 -9 13 -12 11 -12 -6z"/>
<path d="M1054 2728 l-19 -23 23 19 c21 18 27 26 19 26 -2 0 -12 -10 -23 -22z"/>
<path d="M256 2672 c-3 -5 1 -9 9 -9 8 0 12 4 9 9 -3 4 -7 8 -9 8 -2 0 -6 -4
-9 -8z"/>
</g>
</svg>
